<svg width="84" height="82" viewBox="0 0 84 82" fill="none" xmlns="http://www.w3.org/2000/svg">
<path d="M-6.10352e-05 61.8116L41.9998 82.0001V46.8572L-6.10352e-05 26.6687V61.8116Z" fill="#CCCCCC"/>
<path d="M-6.10352e-05 26.669L41.9998 46.8574L83.9996 26.669L41.9998 6.48047L-6.10352e-05 26.669Z" fill="#F2F2F2"/>
<path d="M42.0002 46.8572V82.0001L84 61.8116V26.6687L42.0002 46.8572Z" fill="#E6E6E6"/>
<path d="M50.3995 42.8694L41.9995 46.8572L33.5996 42.8694H50.3995Z" fill="#686868"/>
<path d="M42.0002 54.0852L50.4001 42.8694L42.0002 46.8572V54.0852Z" fill="#383838"/>
<path d="M41.9995 54.0852L33.5996 42.8694L41.9995 46.8572V54.0852Z" fill="black"/>
<path d="M0 0V26.6687L33.3102 29.6596L0 0Z" fill="#F2F2F2"/>
<path d="M83.9999 0L55.0345 25.6718L83.9999 26.6687V0Z" fill="#F2F2F2"/>
<path d="M77.6269 13.2097L70.0959 19.9392L77.6269 23.6778V13.2097Z" fill="#383838"/>
<path d="M6.37259 13.7085L13.6139 20.1888L6.37259 23.6781V13.7085Z" fill="#383838"/>
</svg>
